# xmcd
#
# Track frame offsets:
#	150
#	20975
#	42477
#	58765
#	74757
#	102122
#	117567
#	136622
#	158062
#	178862
#	200332
#	216425
#	232400
#	259740
#	275172
#	294202
#
# Disc length: 4208 seconds
#
# Revision: 1
# Processed by: cddbd v1.5.1PL2 Copyright (c) Steve Scherf et al.
# Submitted via: audiograbber 1.83.01
#
DISCID=07106e10
DTITLE=Sound Choice - SC3224
DYEAR=1900
DGENRE=Karaoke Country
TTITLE0=Carolyn Dawn Johnson - Georgia (Radio Version)
TTITLE1=Faith Hill - There Will Come A Day
TTITLE2=Tamara Walker - Didn'T We Love
TTITLE3=Tammy Cochran - So What
TTITLE4=Patty Loveless - Strong Heart
TTITLE5=Loretta Lynn - Country In My Genes
TTITLE6=Sonya Isaacs - Barefoot In The Grass
TTITLE7=Shedaisy - Lucky 4 You (Tonight I'M Just Me)
TTITLE8=Carolyn Dawn Johnson - Georgia (Radio Version)
TTITLE9=Faith Hill - There Will Come A Day
TTITLE10=Tamara Walker - Didn'T We Love
TTITLE11=Tammy Cochran - So What
TTITLE12=Patty Loveless - Strong Heart
TTITLE13=Loretta Lynn - Country In My Genes
TTITLE14=Sonya Isaacs - Barefoot In The Grass
TTITLE15=Shedaisy - Lucky 4 You (Tonight I'M Just Me)
EXTD=Tracks 9-16 Demos
EXTT0=
EXTT1=
EXTT2=
EXTT3=
EXTT4=
EXTT5=
EXTT6=
EXTT7=
EXTT8=
EXTT9=
EXTT10=
EXTT11=
EXTT12=
EXTT13=
EXTT14=
EXTT15=
PLAYORDER=
